Coordinates
version=1
nRows=17
nColumns=24
inDegrees=yes

Units are S.I. units (second, meters, Newtons, ...)
Angles are in degrees.

endheader
time	pelvis_tilt	pelvis_list	pelvis_rotation	pelvis_tx	pelvis_ty	pelvis_tz	hip_flexion_r	hip_adduction_r	hip_rotation_r	knee_angle_r	ankle_angle_r	subtalar_angle_r	mtp_angle_r	hip_flexion_l	hip_adduction_l	hip_rotation_l	knee_angle_l	ankle_angle_l	subtalar_angle_l	mtp_angle_l	lumbar_extension	lumbar_bending	lumbar_rotation
      1.16000000	     -7.99403917	     -6.33284525	     -3.45169101	     -0.54532006	      1.25472148	     -0.88668115	    -11.14695256	     12.08084453	     14.98460192	     -2.86502113	      8.27155448	      7.86031418	     10.55984388	     34.83235425	     -1.82879318	      2.17434557	     -6.89463885	     -3.40257862	    -18.83289772	      9.02855037	     -0.97000951	      9.45188501	      2.22699874
      1.16500000	     -8.14681570	     -6.24429468	     -3.13527853	     -0.53815629	      1.25405436	     -0.88738341	    -11.29971380	     11.98124040	     13.96485653	     -3.12261536	      8.29041808	      8.90117477	     10.90835804	     34.94417504	     -1.38389835	      2.83234120	     -7.45578775	     -3.77292248	    -19.10508345	      8.94174942	     -0.54751431	      9.30680880	      1.92389424
      1.17000000	     -8.28321926	     -6.14094051	     -2.81120795	     -0.53099408	      1.25347905	     -0.88810600	    -11.46398347	     11.86282175	     13.01364713	     -3.37554920	      8.22906479	      9.84225001	     11.31600680	     34.99420017	     -0.91135070	      3.56737207	     -7.96040022	     -4.42532845	    -19.63376993	      8.71315361	     -0.14614410	      9.14034265	      1.60773257
      1.17500000	     -8.41949992	     -6.01204808	     -2.51328619	     -0.52380970	      1.25299753	     -0.88879334	    -11.60352950	     11.71636111	     12.10593064	     -3.66371663	      8.11141625	     10.70837874	     11.76104140	     35.00520796	     -0.43115383	      4.29356725	     -8.42866282	     -5.16944313	    -20.19416917	      8.43297827	      0.24812750	      8.94581809	      1.32836757
      1.18000000	     -8.54998812	     -5.86889062	     -2.22141927	     -0.51662021	      1.25261147	     -0.88944283	    -11.72556875	     11.55775812	     11.24997668	     -3.98317882	      7.93573219	     11.51228447	     12.24415658	     34.98113711	      0.05538395	      5.01567912	     -8.86022462	     -6.00961706	    -20.79115151	      8.11453719	      0.63720024	      8.71798246	      1.06535752
      1.18500000	     -8.67300814	     -5.71531983	     -1.93587644	     -0.50944205	      1.25232158	     -0.89007583	    -11.82107868	     11.39058620	     10.41942359	     -4.35151444	      7.69248627	     12.24256520	     12.74731614	     34.92688152	      0.54480760	      5.75268251	     -9.26482398	     -6.87922433	    -21.39844117	      7.78997816	      1.00917154	      8.47603801	      0.82441568
      1.19000000	     -8.78965314	     -5.53746458	     -1.66685797	     -0.50226611	      1.25215815	     -0.89064790	    -11.89526371	     11.19815049	      9.64305886	     -4.75299556	      7.38666532	     12.91567078	     13.28704529	     34.83040042	      1.03782029	      6.46548142	     -9.61616322	     -7.84058410	    -22.03103152	      7.44987138	      1.36834874	      8.19481064	      0.60852657
      1.19500000	     -8.89645433	     -5.35829899	     -1.39958977	     -0.49511005	      1.25209541	     -0.89120625	    -11.94263536	     11.00717874	      8.88316848	     -5.20552457	      6.99625036	     13.51350751	     13.82393011	     34.71031528	      1.52581202	      7.20043428	     -9.95534084	     -8.77745450	    -22.65163031	      7.12947674	      1.70606027	      7.91119723	      0.40007495
      1.20000000	     -8.99883643	     -5.15751285	     -1.15154961	     -0.48795950	      1.25216411	     -0.89170482	    -11.96118967	     10.79167730	      8.17640919	     -5.69972567	      6.55117980	     14.07964580	     14.40614592	     34.55419721	      2.01263211	      7.90453386	    -10.25074481	     -9.77368080	    -23.30638353	      6.79422439	      2.03267759	      7.59575637	      0.21974009
      1.20500000	     -9.08781741	     -4.94854355	     -0.91224074	     -0.48083103	      1.25235187	     -0.89215626	    -11.95225415	     10.56778787	      7.50135473	     -6.24906495	      6.03976338	     14.60374365	     15.02154867	     34.36483189	      2.49178832	      8.59292153	    -10.52565073	    -10.75437644	    -23.96243438	      6.46163045	      2.33702839	      7.26261043	      0.06260487
      1.21000000	     -9.16057949	     -4.73766238	     -0.68532598	     -0.47373511	      1.25266199	     -0.89256249	    -11.91744052	     10.34046815	      6.85599797	     -6.85373688	      5.44865761	     15.08398596	     15.64487199	     34.14520233	      2.95506576	      9.26413708	    -10.79423383	    -11.67722181	    -24.59314469	      6.14033126	      2.60729202	      6.92443387	     -0.07616760
      1.21500000	     -9.23149467	     -4.51676256	     -0.47619355	     -0.46664291	      1.25309094	     -0.89290386	    -11.84583264	     10.09929692	      6.24588060	     -7.50703090	      4.79349801	     15.54687682	     16.30386141	     33.90887727	      3.40532938	      9.88551431	    -11.05535806	    -12.58292537	    -25.21145301	      5.80985119	      2.87451799	      6.56672061	     -0.17025183
      1.22000000	     -9.28722213	     -4.30478118	     -0.27651734	     -0.45958529	      1.25363661	     -0.89320911	    -11.73119800	      9.86447381	      5.63426438	     -8.24242590	      4.04528651	     15.99525494	     16.93285794	     33.64184453	      3.83042428	     10.49726496	    -11.30963935	    -13.34984617	    -25.77820789	      5.48992204	      3.11108624	      6.21891859	     -0.26580408
      1.22500000	     -9.32127236	     -4.09742950	     -0.08749169	     -0.45256403	      1.25429727	     -0.89346253	    -11.59043264	      9.62942435	      5.03566218	     -9.03935767	      3.20813788	     16.44210984	     17.53062338	     33.34017516	      4.23141560	     11.07312995	    -11.56065605	    -14.00157688	    -26.28848852	      5.17260387	      3.31051422	      5.87249601	     -0.34527906
      1.23000000	     -9.34146299	     -3.89149530	      0.09398098	     -0.44555986	      1.25505780	     -0.89367875	    -11.41137876	      9.38741639	      4.41785049	     -9.90844769	      2.30198858	     16.91489713	     18.07672561	     33.01411173	      4.61385888	     11.61275225	    -11.81333273	    -14.53179401	    -26.73351643	      4.85673165	      3.49149220	      5.52174539	     -0.39448065
      1.23500000	     -9.33366798	     -3.71025124	      0.27229771	     -0.43863249	      1.25592549	     -0.89386669	    -11.20244211	      9.16343902	      3.79109843	    -10.84818375	      1.28133190	     17.39846774	     18.53230774	     32.66812154	      4.95983396	     12.11843499	    -12.09719694	    -14.90270780	    -27.07818653	      4.58059098	      3.62219708	      5.19811596	     -0.44433418
      1.24000000	     -9.31746575	     -3.51903130	      0.42095332	     -0.43171404	      1.25690451	     -0.89398356	    -10.94108746	      8.91447676	      3.16506138	    -11.87350734	      0.19721781	     17.92254871	     18.94767215	     32.27354003	      5.27954604	     12.56074103	    -12.32260610	    -15.18693100	    -27.38969792	      4.28591830	      3.73725342	      4.86422067	     -0.45922335
